<?xml version="1.0" encoding="UTF-8" standalone="no"?>
<!-- Created with Inkscape (http://www.inkscape.org/) -->

<svg
   xmlns:dc="http://purl.org/dc/elements/1.1/"
   xmlns:cc="http://creativecommons.org/ns#"
   xmlns:rdf="http://www.w3.org/1999/02/22-rdf-syntax-ns#"
   xmlns:svg="http://www.w3.org/2000/svg"
   xmlns="http://www.w3.org/2000/svg"
   xmlns:sodipodi="http://sodipodi.sourceforge.net/DTD/sodipodi-0.dtd"
   xmlns:inkscape="http://www.inkscape.org/namespaces/inkscape"
   width="210mm"
   height="297mm"
   viewBox="0 0 210 297"
   version="1.1"
   id="svg826"
   class="logo"
   inkscape:version="0.92.4 (5da689c313, 2019-01-14)"
   sodipodi:docname="nigmaJSlogov2.svg"
   inkscape:export-filename="C:\Users\ggarat\bitmap.png"
   inkscape:export-xdpi="84.669998"
   inkscape:export-ydpi="84.669998">
  <defs
     id="logo"
     class="logo">
    <path
       inkscape:connector-curvature="0"
       id="path4870-7-6-2-6"
       d="m -401.31446,599.54058 a 24.599539,24.566385 0 0 1 -24.59955,24.56639 24.599539,24.566385 0 0 1 -24.59953,-24.56639 24.599539,24.566385 0 0 1 24.59953,-24.56638 24.599539,24.566385 0 0 1 24.59955,24.56638 z"
       style="opacity:1;fill:none;stroke:none;stroke-width:0.69999999;stroke-linecap:round;stroke-linejoin:round;stroke-miterlimit:4;stroke-dasharray:none;stroke-dashoffset:0;stroke-opacity:1" />
  </defs>
  <sodipodi:namedview
     id="base"
     pagecolor="#ffffff"
     bordercolor="#666666"
     borderopacity="1.0"
     inkscape:pageopacity="0.0"
     inkscape:pageshadow="2"
     inkscape:zoom="0.49497475"
     inkscape:cx="9.9508704"
     inkscape:cy="655.75039"
     inkscape:document-units="mm"
     inkscape:current-layer="capa1"
     showgrid="false"
     inkscape:window-width="1920"
     inkscape:window-height="1017"
     inkscape:window-x="-8"
     inkscape:window-y="-8"
     inkscape:window-maximized="1"
     units="px" />
  <metadata
     id="metadata1453">
    <rdf:RDF>
      <cc:Work
         rdf:about="">
        <dc:format>image/svg+xml</dc:format>
        <dc:type
           rdf:resource="http://purl.org/dc/dcmitype/StillImage" />
        <dc:title />
      </cc:Work>
    </rdf:RDF>
  </metadata>
  <g
     inkscape:label="Capa 1"
     inkscape:groupmode="layer"
     id="capa1"
     class="capa1">
    <path
       inkscape:connector-curvature="0"
       id="YellowOval"
       class="YellowOval"
       d="m 82.040148,188.27231 a 89.86747,91.851729 30 0 0 90.245602,-0.8885 89.867473,91.851734 30 0 0 -44.3219,-78.65392 89.867473,91.851734 30 0 0 -90.249602,0.8864 89.86747,91.851729 30 0 0 44.3259,78.65602 z"
       style="opacity:1;fill:#f4a950;fill-opacity:1;stroke:none;stroke-width:2;stroke-linecap:round;stroke-linejoin:round;stroke-miterlimit:4;stroke-dasharray:none;stroke-dashoffset:0;stroke-opacity:1" />
    <path
       style="opacity:1;fill:#116466;fill-opacity:1;stroke:none;stroke-width:1.84192479;stroke-linecap:round;stroke-linejoin:round;stroke-miterlimit:4;stroke-dasharray:none;stroke-dashoffset:0;stroke-opacity:1"
       d="m 126.14903,185.12665 a 84.591988,82.76456 60 0 0 40.84753,-72.38692 84.591993,82.764563 60 0 0 -83.141715,-0.86866 84.591993,82.764563 60 0 0 -40.851405,72.38923 84.591988,82.76456 60 0 0 83.14559,0.86635 z"
       id="GreenOval"
       class="GreenOval"
       inkscape:connector-curvature="0" />
    <path
       id="Morse"
       style="font-style:normal;font-variant:normal;font-weight:normal;font-stretch:normal;font-size:11.3036108px;line-height:1.25;font-family:'Arial Rounded MT Bold';-inkscape-font-specification:'Arial Rounded MT Bold, ';letter-spacing:0px;word-spacing:0px;fill:#f4a950;fill-opacity:1;stroke:#f4a950;stroke-width:0.33869413;stroke-opacity:1"
       d="m 67.603601,154.53653 q 0.09,0.47628 -0.165991,0.87748 -0.255874,0.40124 -0.834212,0.50121 -0.489918,0.0847 -0.905705,-0.18462 -0.415801,-0.26926 -0.507266,-0.75318 -0.09145,-0.48396 0.198014,-0.88305 0.280003,-0.40542 0.777989,-0.49149 0.570241,-0.0986 0.964879,0.19011 0.385144,0.28247 0.472237,0.74338 z m 1.285912,4.80893 q 0.160434,0.45902 -0.03275,0.8912 -0.193155,0.43217 -0.750499,0.61037 -0.472172,0.15097 -0.924039,-0.0584 -0.451839,-0.20948 -0.614887,-0.67588 -0.163022,-0.46644 0.06371,-0.90108 0.216337,-0.43961 0.696314,-0.59305 0.549596,-0.17573 0.983401,0.056 0.423468,0.2268 0.578755,0.67097 z m -1.684593,5.1979 1.169363,2.19867 q 0.266434,0.50095 0.166996,0.88216 -0.110786,0.37767 -0.49597,0.56537 -0.392821,0.19113 -0.766113,0.0575 -0.384236,-0.13716 -0.658093,-0.65199 l -1.169363,-2.19868 q -0.273839,-0.51487 -0.159724,-0.88569 0.103162,-0.37424 0.495971,-0.56537 0.38555,-0.1876 0.766112,-0.0575 0.373255,0.13373 0.650821,0.65553 z m 9.130552,7.0326 q 0.338598,0.35969 0.341744,0.82969 0.0032,0.46999 -0.433567,0.84608 -0.369985,0.31863 -0.871685,0.29902 -0.501716,-0.0196 -0.845779,-0.38511 -0.344052,-0.36546 -0.317477,-0.85056 0.01511,-0.48564 0.391054,-0.80953 0.430646,-0.37087 0.925075,-0.32398 0.482911,0.0463 0.810593,0.39438 z m 3.739096,3.44212 q 0.389068,0.30948 0.462721,0.77416 0.07364,0.4647 -0.301832,0.89694 -0.318341,0.36613 -0.817788,0.4156 -0.499461,0.0495 -0.894653,-0.26546 -0.395357,-0.31447 -0.441846,-0.79818 -0.058,-0.4827 0.264926,-0.85502 0.370525,-0.42615 0.866881,-0.44762 0.484862,-0.0205 0.861352,0.27908 z m 1.434204,5.26853 2.206461,1.27727 q 0.502721,0.29105 0.628595,0.66502 0.114676,0.37662 -0.109251,0.73059 -0.228224,0.36063 -0.619036,0.4355 -0.40202,0.0775 -0.91871,-0.22166 l -2.206448,-1.27727 q -0.516708,-0.29908 -0.624385,-0.6717 -0.118885,-0.36994 0.109393,-0.73055 0.224028,-0.35394 0.619035,-0.43551 0.390813,-0.0749 0.914499,0.22827 z m 7.721401,0.038 q 0.466957,0.18643 0.680036,0.61002 0.213089,0.42352 -0.01332,0.94217 -0.191807,0.43941 -0.654114,0.62697 -0.462248,0.1876 -0.936704,-0.002 -0.474461,-0.18958 -0.667461,-0.63885 -0.20366,-0.44513 -0.0087,-0.89174 0.223344,-0.51143 0.691186,-0.6714 0.457194,-0.15577 0.909079,0.0247 z m 8.992043,2.36529 q 0.501081,0.0674 0.819358,0.42549 0.318249,0.35811 0.236447,0.91469 -0.06941,0.47155 -0.466851,0.76497 -0.397522,0.2934 -0.906707,0.22494 -0.509156,-0.0686 -0.814807,-0.45643 -0.314841,-0.3813 -0.24439,-0.86058 0.08065,-0.54884 0.490953,-0.81689 0.401066,-0.26139 0.885997,-0.19619 z m 4.117064,3.7594 2.57899,-0.0236 q 0.58761,-0.006 0.90033,0.24937 0.30462,0.26263 0.30878,0.67634 0.004,0.42154 -0.28698,0.68184 -0.29931,0.26817 -0.90325,0.27371 l -2.57899,0.0236 q -0.60393,0.006 -0.90051,-0.25684 -0.30455,-0.25482 -0.30878,-0.67634 -0.004,-0.41373 0.28698,-0.68184 0.29123,-0.26028 0.90332,-0.2659 z m 6.58776,-3.85292 q 0.49965,-0.0766 0.91397,0.1761 0.41433,0.25268 0.50732,0.80771 0.0788,0.47018 -0.21096,0.86244 -0.28972,0.39227 -0.79742,0.4701 -0.5077,0.0778 -0.91912,-0.20697 -0.41819,-0.27585 -0.49827,-0.75375 -0.0917,-0.54727 0.21791,-0.91891 0.30293,-0.36268 0.78645,-0.43679 z m 9.40255,1.01088 2.35294,-1.01016 q 0.53613,-0.23016 0.92936,-0.11661 0.38924,0.12354 0.56628,0.50132 0.18049,0.38457 0.0227,0.73468 -0.16185,0.36041 -0.71287,0.59697 l -2.35293,1.01016 q -0.55102,0.23654 -0.93272,0.10948 -0.38583,-0.1166 -0.56627,-0.50132 -0.17714,-0.37746 -0.0227,-0.73468 0.15773,-0.35011 0.71621,-0.58984 z m 5.44389,-2.61839 2.1649,-1.34072 q 0.49327,-0.30548 0.9,-0.25047 0.40431,0.0658 0.63941,0.41311 0.23954,0.35385 0.13928,0.72282 -0.10264,0.37978 -0.60963,0.69374 l -2.16491,1.34073 q -0.50698,0.31396 -0.90443,0.24391 -0.39985,-0.0593 -0.63941,-0.4131 -0.2351,-0.3473 -0.13929,-0.72283 0.10021,-0.36898 0.61408,-0.68719 z m 4.96532,-3.38145 1.92551,-1.64114 q 0.43873,-0.37394 0.84946,-0.37897 0.41008,0.006 0.69787,0.3149 0.29321,0.31471 0.25304,0.694 -0.0409,0.3903 -0.49175,0.77464 l -1.92551,1.64116 q -0.4509,0.38431 -0.8549,0.37313 -0.40463,-1.3e-4 -0.69784,-0.31489 -0.28779,-0.3089 -0.25304,-0.69402 0.0402,-0.37928 0.49716,-0.76881 z m 7.18175,-7.51351 1.39746,-2.0733 q 0.31842,-0.4724 0.71283,-0.58213 0.39686,-0.099 0.76042,0.12524 0.37042,0.22846 0.43758,0.6042 0.0696,0.38657 -0.25763,0.87209 l -1.39745,2.07331 q -0.32726,0.48553 -0.71971,0.57792 -0.38999,0.10317 -0.76042,-0.12526 -0.36356,-0.22419 -0.4376,-0.60417 -0.0671,-0.37579 0.26448,-0.86789 z m 3.07196,-5.03925 1.04747,-2.25422 q 0.23861,-0.51362 0.61073,-0.68006 0.37622,-0.15616 0.77152,0.0119 0.40277,0.17113 0.52954,0.53262 0.13094,0.37173 -0.11435,0.89962 l -1.04746,2.2542 q -0.24528,0.5279 -0.6182,0.6769 -0.36877,0.15933 -0.77151,-0.0119 -0.3953,-0.16802 -0.52956,-0.53264 -0.12679,-0.36143 0.12182,-0.89644 z m -0.92757,-7.33169 q 0.13536,-0.46636 0.54821,-0.72128 0.41284,-0.25494 0.97905,-0.10455 0.47972,0.12742 0.73185,0.54274 0.25212,0.41533 0.11455,0.88919 -0.13752,0.4739 -0.5797,0.71294 -0.43642,0.24865 -0.92401,0.11917 -0.55836,-0.14824 -0.78252,-0.57242 -0.21847,-0.41449 -0.0874,-0.86579 z m 4.79666,-12.12628 -0.28116,-2.45212 q -0.0641,-0.55869 0.16984,-0.88165 0.24294,-0.31604 0.67292,-0.36116 0.43809,-0.046 0.73785,0.20534 0.30877,0.25818 0.37461,0.83241 l 0.28116,2.4521 q 0.0658,0.57424 -0.178,0.88251 -0.23478,0.31521 -0.67292,0.36115 -0.43,0.0451 -0.73787,-0.20535 -0.29978,-0.25127 -0.3665,-0.83325 z m -0.9345,-5.76371 -0.67143,-2.38176 q -0.15299,-0.54267 0.0264,-0.89614 0.18924,-0.34799 0.60697,-0.4557 0.42554,-0.10973 0.7621,0.0945 0.34654,0.20977 0.50378,0.76752 l 0.67144,2.38174 q 0.15724,0.55775 -0.0342,0.8982 -0.18145,0.34593 -0.60696,0.45569 -0.41766,0.10771 -0.76209,-0.0945 -0.33654,-0.20428 -0.49591,-0.76956 z m -1.84573,-5.55575 -1.04343,-2.25591 q -0.23774,-0.51399 -0.11691,-0.8895 0.13198,-0.3714 0.52719,-0.53891 0.40305,-0.17055 0.76824,-0.0178 0.37595,0.15676 0.62028,0.68504 l 1.04345,2.2559 q 0.24434,0.5283 0.10944,0.89268 -0.12474,0.36818 -0.5272,0.5389 -0.39558,0.16739 -0.76822,0.0178 -0.36517,-0.15281 -0.61284,-0.68821 z m -8.71962,-7.49459 q -0.31771,-0.37672 -0.29418,-0.84619 0.0235,-0.46947 0.48091,-0.82234 0.38753,-0.29895 0.88738,-0.25333 0.49987,0.0456 0.82268,0.42843 0.32281,0.3828 0.26877,0.86579 -0.0425,0.48418 -0.43647,0.78803 -0.45103,0.34797 -0.94208,0.27549 -0.47959,-0.0712 -0.78701,-0.43588 z m -3.53782,-3.63171 q -0.37084,-0.32932 -0.41785,-0.79715 -0.0471,-0.46785 0.35276,-0.87977 0.33875,-0.34897 0.84028,-0.37228 0.50154,-0.0233 0.87837,0.31127 0.37681,0.33461 0.39565,0.82003 0.0304,0.48501 -0.31399,0.83968 -0.39428,0.40618 -0.89112,0.40172 -0.48529,-0.005 -0.84416,-0.32358 z m -1.1311,-5.33571 -2.13021,-1.39066 q -0.48535,-0.31687 -0.58968,-0.69686 -0.093,-0.38205 0.15086,-0.72379 0.24848,-0.34817 0.64299,-0.4025 0.40586,-0.0564 0.90471,0.26927 l 2.13017,1.39067 q 0.49886,0.32567 0.58509,0.70332 0.0976,0.3756 -0.15085,0.72377 -0.2439,0.34171 -0.64298,0.40252 -0.39452,0.0543 -0.90002,-0.27595 z m -7.70806,-0.44068 q -0.45569,-0.21048 -0.64453,-0.64434 -0.18883,-0.43393 0.0666,-0.94008 0.21639,-0.42884 0.68862,-0.59222 0.47218,-0.16338 0.93524,0.0504 0.46304,0.21387 0.63031,0.67248 0.17817,0.455 -0.0418,0.89087 -0.25187,0.49914 -0.72816,0.63463 -0.46534,0.13188 -0.90633,-0.0717 z m -8.8461,-2.82381 q -0.49655,-0.0932 -0.79402,-0.46736 -0.29749,-0.37409 -0.18424,-0.92561 0.0958,-0.46729 0.5095,-0.73963 0.41358,-0.27235 0.91813,-0.17757 0.50453,0.0948 0.78774,0.49798 0.29276,0.39707 0.19526,0.87201 -0.11171,0.54383 -0.53654,0.79022 -0.41529,0.24023 -0.89583,0.14996 z m -5.15042,-0.60714 q -0.50537,-0.0243 -0.85588,-0.3536 -0.35049,-0.32945 -0.32107,-0.8908 0.0249,-0.47561 0.39335,-0.80186 0.36849,-0.32625 0.88204,-0.30163 0.51354,0.0246 0.85425,0.38481 0.34924,0.35283 0.32392,0.83622 -0.029,0.55354 -0.41259,0.85563 -0.375,0.29467 -0.8641,0.27123 z m -4.45312,-3.391 -2.566385,0.24477 q -0.58475,0.0558 -0.920104,-0.17111 -0.328049,-0.23536 -0.370949,-0.64713 -0.04372,-0.41947 0.221787,-0.70373 0.272957,-0.29276 0.873934,-0.35009 l 2.566387,-0.24477 q 0.60099,-0.0573 0.92089,0.17892 0.32721,0.2277 0.37094,0.64712 0.0429,0.41169 -0.22177,0.70374 -0.26564,0.28421 -0.87476,0.34231 z m -6.200283,4.4017 q -0.490509,0.11896 -0.926755,-0.0974 -0.436238,-0.21638 -0.580663,-0.76116 -0.122363,-0.46157 0.12956,-0.87702 0.251981,-0.41542 0.750347,-0.5363 0.498416,-0.12087 0.934781,0.12765 0.442259,0.23907 0.566635,0.70821 0.142412,0.53725 -0.131365,0.93381 -0.267835,0.3871 -0.74254,0.50221 z m -8.670261,3.28072 q -0.442672,0.23449 -0.922142,0.13152 -0.479474,-0.10291 -0.764173,-0.59466 -0.241204,-0.41655 -0.108187,-0.87967 0.13307,-0.46308 0.582834,-0.70137 0.449808,-0.23828 0.937957,-0.10421 0.491307,0.12347 0.736485,0.54684 0.280752,0.48486 0.121589,0.93504 -0.155778,0.43963 -0.584363,0.66651 z m -7.511145,5.28369 q -0.365448,0.33478 -0.856507,0.35227 -0.491062,0.0175 -0.897539,-0.3884 -0.344369,-0.34389 -0.339323,-0.82414 0.005,-0.48026 0.376329,-0.82043 0.371329,-0.34018 0.879081,-0.32972 0.508005,-5.7e-4 0.858033,0.3489 0.40083,0.40027 0.36706,0.8744 -0.03347,0.4631 -0.387135,0.78707 z m -3.480872,3.68139 q -0.311199,0.38166 -0.794512,0.46662 -0.483294,0.085 -0.946677,-0.26069 -0.392581,-0.29286 -0.459924,-0.76878 -0.06734,-0.47593 0.248873,-0.86373 0.316224,-0.3878 0.820249,-0.44742 0.502608,-0.0705 0.901636,0.2271 0.456936,0.34085 0.494939,0.81467 0.03657,0.4629 -0.265177,0.83205 z m -2.888597,4.1233 q -0.250271,0.42064 -0.715697,0.5715 -0.465409,0.15084 -0.976125,-0.12719 -0.432719,-0.23548 -0.571205,-0.69716 -0.138514,-0.46164 0.115828,-0.88906 0.254344,-0.42742 0.744073,-0.55605 0.486679,-0.13926 0.926468,0.10015 0.503637,0.27412 0.612778,0.73777 0.106104,0.45296 -0.136134,0.86004 z m -2.237056,4.47903 q -0.184615,0.45063 -0.622597,0.66375 -0.43797,0.21314 -0.985104,0.008 -0.463537,-0.17371 -0.669842,-0.61159 -0.206314,-0.43784 -0.0187,-0.89575 0.187606,-0.45789 0.652996,-0.65238 0.460769,-0.20458 0.931904,-0.028 0.53956,0.20218 0.717087,0.64609 0.172943,0.43372 -0.0057,0.86982 z"
       inkscape:connector-curvature="0" />
    <text
       id="Nigma"
       class="Nigma"
       y="153.39005"
       x="104.46068"
       style="font-style:normal;font-variant:normal;font-weight:normal;font-stretch:normal;font-size:13.46982765px;line-height:1.25;font-family:hel;-inkscape-font-specification:hel;text-align:center;letter-spacing:0px;word-spacing:0px;text-anchor:middle;fill:#f4a950;fill-opacity:1;stroke:#f4a950;stroke-width:0.2246284;stroke-opacity:1"
       xml:space="preserve"><tspan
         id="tspan6851-2"
         style="font-style:normal;font-variant:normal;font-weight:bold;font-stretch:normal;font-family:hel;-inkscape-font-specification:'hel Bold';text-align:center;text-anchor:middle;fill:#f4a950;fill-opacity:1;stroke:#f4a950;stroke-width:0.2246284;stroke-opacity:1"
         y="153.39005"
         x="104.46068"
         sodipodi:role="line">NIGMA</tspan></text>
  </g>
</svg>
